<svg width="99" height="94" viewBox="0 0 99 94" fill="none" xmlns="http://www.w3.org/2000/svg">
<path d="M5.99624 38.1822C6.2971 36.1369 6.74168 34.1149 7.32836 32.1344C12.2795 14.0131 30.8173 0.89351 50.1306 1.41518C50.142 1.41518 50.1534 1.41542 50.1648 1.41542C69.4573 0.929962 88.1392 13.9419 92.9926 32.1213C93.5644 34.1052 93.989 36.1308 94.2644 38.179C94.4451 38.1591 94.6259 38.139 94.8066 38.1191C94.5885 36.0396 94.2151 33.9749 93.6872 31.9456C89.2978 13.3394 70.0546 -0.523425 50.1658 0.0172988C50.1541 0.0172912 50.1423 0.0172987 50.1306 0.0172988C30.2175 -0.560842 11.1194 13.4178 6.63504 31.9541C6.09229 33.9792 5.69892 36.0397 5.45508 38.1159C5.63548 38.1379 5.81585 38.1602 5.99624 38.1822Z" fill="white"/>
<path d="M5.99624 56.0369C6.2971 58.0683 6.74168 60.0765 7.32836 62.0435C12.2795 80.0416 30.8173 93.0719 50.1306 92.5538C50.142 92.5538 50.1534 92.5536 50.1648 92.5536C69.4573 93.0357 88.1392 80.1123 92.9926 62.0566C93.5644 60.0861 93.989 58.0744 94.2644 56.0401C94.4451 56.0599 94.6259 56.0798 94.8066 56.0996C94.5885 58.1649 94.2151 60.2155 93.6872 62.2311C89.2978 80.7107 70.0546 94.4792 50.1658 93.9422C50.1541 93.9422 50.1423 93.9422 50.1306 93.9422C30.2175 94.5164 11.1194 80.6328 6.63504 62.2226C6.09229 60.2113 5.69892 58.1649 5.45508 56.1027C5.63548 56.0809 5.81585 56.0588 5.99624 56.0369Z" fill="white"/>
<path d="M2.92387 53.0749C2.47503 53.1003 2.16084 52.9103 1.9813 52.505C1.82742 52.1758 1.8723 51.9478 2.11596 51.8211C2.21855 51.7831 2.30832 51.7642 2.38526 51.7642H4.52045C4.84105 51.2576 5.01418 50.6623 5.03982 49.9784V49.6555C5.03982 48.2624 5.01418 47.0402 4.96288 45.989C4.92441 44.9379 4.86029 44.064 4.77052 43.3674C4.77052 42.8102 4.5974 42.4872 4.25115 42.3986C4.12291 42.3606 3.94337 42.3416 3.71254 42.3416H3.19317C2.29549 42.177 1.74406 42.234 1.53888 42.5126C1.39781 42.7279 1.32728 43.1015 1.32728 43.6334C1.30163 44.5453 1.21187 45.1595 1.05798 45.4761C0.891266 45.7547 0.654023 45.8307 0.346247 45.7041C0.115416 45.6028 0 45.4381 0 45.2102C0.012824 44.8809 0.0320599 44.3743 0.0577079 43.6904C0.0705319 43.1458 0.0897679 42.6772 0.115416 42.2846C0.153888 41.8793 0.198772 41.5437 0.250068 41.2778C0.480899 40.9232 0.750203 40.7458 1.05798 40.7458C2.59686 41.1891 4.56534 41.3348 6.96342 41.1828C7.19425 41.1575 7.5405 41.1385 8.00216 41.1258C8.41253 41.1005 8.76519 41.0815 9.06014 41.0688C9.36792 41.0435 9.62439 41.0245 9.82958 41.0118C10.4195 41.0118 10.7593 41.0561 10.8491 41.1448C10.9004 41.1954 10.9517 41.2778 11.003 41.3917C11.0543 41.4931 11.1056 41.626 11.1569 41.7907C11.1569 41.8413 11.1761 41.9743 11.2146 42.1896C11.253 42.4049 11.3043 42.7089 11.3685 43.1015C11.4069 43.3295 11.4262 43.5068 11.4262 43.6334C11.4262 44.0007 11.253 44.311 10.9068 44.5643C10.7914 44.6402 10.6952 44.6782 10.6183 44.6782C10.0925 44.5009 9.82958 43.893 9.82958 42.8545C9.82958 42.6392 9.68851 42.4556 9.40639 42.3036C9.31662 42.253 9.23968 42.2086 9.17556 42.1706C9.11144 42.12 9.06655 42.082 9.0409 42.0566H7.71362C7.17502 42.3353 6.848 42.5632 6.73259 42.7405C6.66847 42.8672 6.63641 42.9875 6.63641 43.1015C6.4697 43.2788 6.38634 43.5384 6.38634 43.8804V51.4982C6.66847 51.6882 7.14937 51.8148 7.82904 51.8781C8.12399 51.9161 8.34841 51.9668 8.5023 52.0301C8.65619 52.0301 8.78442 52.1378 8.88702 52.3531C8.98961 52.6064 8.90625 52.752 8.63695 52.79C8.59848 52.8027 8.55359 52.809 8.5023 52.809C8.01499 52.809 6.45046 52.885 3.80872 53.037C3.64201 53.0496 3.48171 53.056 3.32782 53.056C3.18676 53.056 3.05211 53.0623 2.92387 53.0749Z" fill="white"/>
<path d="M22.4376 52.847C22.117 52.9483 21.7515 53.018 21.3411 53.056C20.9307 53.0813 20.4819 53.0813 19.9946 53.056C19.9305 53.056 19.8728 53.056 19.8215 53.056C19.7702 53.056 19.7189 53.0496 19.6676 53.037C19.5265 53.037 19.4047 52.9863 19.3021 52.885L19.2059 52.79C19.2059 52.638 19.2572 52.5114 19.3598 52.4101L19.4367 52.3341C19.5393 52.2707 19.6996 52.2137 19.9176 52.1631C20.328 52.0491 20.5524 51.9098 20.5909 51.7452C20.6037 51.7198 20.6101 51.6882 20.6101 51.6502C20.6101 51.0296 20.5332 50.561 20.3793 50.2444C20.1228 49.6365 19.9241 49.2819 19.783 49.1805C19.6163 49.0539 19.27 48.9463 18.7442 48.8576C18.0389 48.8576 16.981 49.0096 15.5703 49.3135C15.5447 49.3262 15.5126 49.3325 15.4741 49.3325C15.0253 49.3452 14.788 49.4908 14.7624 49.7695C14.4418 50.39 14.2815 50.9346 14.2815 51.4032C14.2815 51.5299 14.4354 51.7198 14.7432 51.9731C15.1022 52.2771 15.2433 52.5557 15.1664 52.809C14.974 52.9736 14.0122 53.0496 12.281 53.037H11.954L11.7039 52.79C11.7167 52.5114 11.8001 52.3594 11.954 52.3341C12.5182 51.9161 13.0568 51.1119 13.5698 49.9214C13.5826 49.8961 13.6082 49.8328 13.6467 49.7315C13.698 49.6301 13.7557 49.4972 13.8198 49.3325C13.9096 49.0412 14.1404 48.3573 14.5123 47.2808C14.8842 46.2043 15.3908 44.7479 16.032 42.9115C16.2628 42.2783 16.3782 41.9363 16.3782 41.8857C16.391 41.873 16.4808 41.7147 16.6475 41.4107C16.8142 41.1448 17.0451 40.9991 17.34 40.9738C17.7247 40.8345 18.0389 40.9991 18.2826 41.4677C18.2954 41.4931 18.3082 41.5247 18.3211 41.5627C18.3467 41.5881 18.3659 41.6197 18.3788 41.6577L18.4942 41.8857C19.6355 44.1653 20.4178 46.2613 20.841 48.1737C20.8666 48.2624 20.8987 48.3827 20.9371 48.5346C20.9756 48.674 21.0205 48.8323 21.0718 49.0096C21.4437 50.3647 21.8092 51.3272 22.1682 51.8971C22.258 52.0238 22.3478 52.1441 22.4376 52.2581C22.5401 52.3594 22.6363 52.4607 22.7261 52.562C22.8287 52.6507 22.7325 52.7457 22.4376 52.847ZM17.5516 48.1737C18.5647 48.2877 19.1867 48.2687 19.4175 48.1167C19.7125 47.8634 19.6419 47.2555 19.2059 46.293V46.046C19.0777 45.5521 18.9558 45.1405 18.8404 44.8112C18.7378 44.4819 18.6417 44.235 18.5519 44.0703C18.3467 43.6651 18.0966 43.3231 17.8017 43.0445C17.3272 43.3991 16.904 44.0703 16.5321 45.0582C16.4039 45.3875 16.3077 45.6344 16.2436 45.7991C16.1923 45.9637 16.1666 46.046 16.1666 46.046C16.1282 46.1474 16.0769 46.2677 16.0127 46.407C15.9614 46.5336 15.9037 46.6793 15.8396 46.8439C15.596 47.4392 15.5062 47.8128 15.5703 47.9647C15.7114 48.1927 16.3333 48.2624 17.4362 48.1737H17.5516Z" fill="white"/>
<path d="M29.3446 53.1319C29.1138 53.1699 28.7675 53.1826 28.3059 53.1699C27.857 53.1699 27.2928 53.1446 26.6131 53.0939C26.1001 53.0686 25.6449 53.056 25.2474 53.056C24.8498 53.056 24.5036 53.0813 24.2086 53.1319C23.7213 53.0053 23.4648 52.8343 23.4392 52.619C23.4392 52.467 23.4905 52.3277 23.5931 52.2011L23.6892 52.1061H24.4587C24.9588 52.0934 25.2217 51.8338 25.2474 51.3272V43.6904C25.2474 42.8545 24.9973 42.3036 24.4972 42.0377C24.4459 42.0123 24.3946 41.987 24.3433 41.9617C24.3048 41.9363 24.2599 41.9173 24.2086 41.9047C24.0804 41.9047 24.0034 41.8413 23.9778 41.7147V41.6577C23.9521 41.2904 24.2727 41.0498 24.9396 40.9358C25.0037 40.9232 25.0614 40.9168 25.1127 40.9168C25.164 40.9042 25.2089 40.8978 25.2474 40.8978C25.3884 40.8978 25.7026 40.9168 26.1899 40.9548C26.6901 40.9801 27.3569 41.0245 28.1905 41.0878C28.7291 41.1258 29.2036 41.1448 29.6139 41.1448C30.6014 41.3094 31.3323 41.7654 31.8068 42.5126C32.1531 43.0318 32.2749 43.5954 32.1723 44.2033C32.1595 44.7099 31.9864 45.1342 31.6529 45.4761C31.5247 45.6028 31.2426 45.7421 30.8066 45.8941C30.4603 46.0207 30.2359 46.2233 30.1333 46.502C30.1846 46.54 30.3257 46.6476 30.5565 46.8249C30.8001 47.0022 31.1336 47.2555 31.5568 47.5848C31.6593 47.6734 31.7619 47.7558 31.8645 47.8318C31.9799 47.9077 32.0825 47.9774 32.1723 48.0407C32.7366 48.408 33.0764 49.0412 33.1918 49.9404C33.2688 50.6117 33.179 51.0739 32.9225 51.3272C32.6404 51.7325 32.3967 52.0554 32.1915 52.2961C31.9864 52.5367 31.8261 52.7013 31.7106 52.79C31.4029 53.0053 30.8386 53.1193 30.0179 53.1319H29.3446ZM27.2671 45.9321C27.3825 45.97 27.4787 45.989 27.5557 45.989C27.6839 45.951 27.825 45.9131 27.9789 45.8751C28.1456 45.8371 28.3315 45.7927 28.5367 45.7421C28.7675 45.6914 28.9727 45.6471 29.1523 45.6091C29.3318 45.5711 29.4857 45.5268 29.6139 45.4761C30.5757 45.2355 30.9091 44.5579 30.6142 43.4434C30.6014 42.6962 30.1782 42.1833 29.3446 41.9047C28.3572 41.9047 27.6711 41.9933 27.2864 42.1706C26.9658 42.2593 26.7926 42.4303 26.767 42.6836C26.7029 42.7595 26.6516 42.8609 26.6131 42.9875C26.5746 43.1142 26.5554 43.2218 26.5554 43.3105L26.5362 43.4434C26.5362 43.5954 26.5939 44.0513 26.7093 44.8112C26.7478 45.0519 26.767 45.2735 26.767 45.4761C26.767 45.6408 26.9337 45.7927 27.2671 45.9321ZM27.5557 52.3721H29.864C30.595 52.3721 31.1656 52.0554 31.576 51.4222C31.6273 51.3336 31.6786 51.2449 31.7299 51.1562C31.794 51.0549 31.8517 50.9473 31.903 50.8333C32.121 49.9721 32.0697 49.3199 31.7491 48.8766C31.6722 48.7753 31.5824 48.674 31.4798 48.5726C31.39 48.4713 31.281 48.3763 31.1528 48.2877C30.3064 47.4392 29.1074 47.0149 27.5557 47.0149C27.0555 47.0275 26.7926 47.2808 26.767 47.7748C26.6131 48.4713 26.5362 49.4908 26.5362 50.8333C26.3951 51.4792 26.4272 51.8845 26.6323 52.0491C26.6965 52.0998 26.8055 52.1504 26.9594 52.2011C27.1132 52.2517 27.312 52.3087 27.5557 52.3721Z" fill="white"/>
<path d="M37.1206 52.809C36.7487 52.8596 36.4217 52.8976 36.1396 52.923C35.8574 52.9483 35.6266 52.9736 35.4471 52.999C35.3958 52.999 35.2098 52.9293 34.8892 52.79C34.7866 52.7393 34.6905 52.714 34.6007 52.714C34.6007 52.714 34.5815 52.6887 34.543 52.638C34.5045 52.5874 34.4532 52.5114 34.3891 52.4101C34.3506 52.3087 34.3314 52.2264 34.3314 52.1631C34.5366 51.9858 34.8123 51.8971 35.1585 51.8971C35.5561 51.8971 35.8831 51.6945 36.1396 51.2892C36.2422 51.1119 36.2935 50.9346 36.2935 50.7573V43.1775C36.2806 42.6582 36.1011 42.3859 35.7549 42.3606C35.2291 42.3606 34.8828 42.2973 34.7161 42.1706C34.6776 42.1453 34.6392 42.1136 34.6007 42.0756C34.2416 41.7717 34.2224 41.5184 34.543 41.3158C34.7866 41.1764 34.9918 41.1448 35.1585 41.2208C35.5433 41.1321 35.9921 41.0688 36.5051 41.0308C37.0308 40.9801 37.6272 40.9548 38.294 40.9548C38.3068 40.9548 38.3261 40.9548 38.3517 40.9548C38.3774 40.9548 38.4158 40.9485 38.4671 40.9358C39.0057 40.8725 39.3135 40.9865 39.3904 41.2778C39.4033 41.3158 39.4097 41.3538 39.4097 41.3917C39.4097 41.4297 39.4097 41.4677 39.4097 41.5057C39.5379 41.7717 39.4738 41.968 39.2173 42.0946C39.1917 42.1073 39.1596 42.12 39.1211 42.1326C39.0827 42.1453 39.0314 42.1643 38.9673 42.1896C38.8005 42.2656 38.6659 42.3226 38.5633 42.3606C38.3838 42.3606 38.2171 42.5252 38.0632 42.8545C38.0119 42.9685 37.9862 43.0762 37.9862 43.1775C37.9862 43.3928 37.967 43.9437 37.9285 44.8302C37.9029 45.7041 37.858 46.9136 37.7939 48.4587C37.7554 49.3452 37.7362 50.1114 37.7362 50.7573C37.5438 51.1372 37.672 51.3969 38.1209 51.5362C38.2619 51.5742 38.4094 51.5932 38.5633 51.5932C40.115 51.8718 41.4743 51.5425 42.6413 50.6053C42.8209 50.466 42.9812 50.3267 43.1222 50.1874C43.1479 50.1621 43.1735 50.1367 43.1992 50.1114C43.2248 50.0734 43.2569 50.0291 43.2954 49.9784C43.6288 49.5732 43.9366 49.3642 44.2187 49.3515C44.8983 49.8075 45.1164 50.5547 44.8727 51.5932C44.8599 51.6438 44.847 51.6945 44.8342 51.7452C44.8214 51.7958 44.8086 51.8465 44.7958 51.8971C44.7958 52.2517 44.6034 52.505 44.2187 52.657C44.1289 52.695 44.0456 52.714 43.9686 52.714C42.481 52.4227 40.4933 52.4227 38.0055 52.714C37.9029 52.7267 37.7746 52.7393 37.6207 52.752C37.4797 52.7647 37.313 52.7837 37.1206 52.809Z" fill="white"/>
<path d="M47.6011 52.98C47.4728 53.1066 47.1779 53.1256 46.7162 53.037C46.6649 53.0243 46.62 53.018 46.5815 53.018C46.5431 53.0053 46.511 52.999 46.4854 52.999C46.3058 52.7963 46.2161 52.524 46.2161 52.1821C46.2161 52.0174 46.2545 51.9288 46.3315 51.9161C46.3571 51.9035 46.4084 51.8971 46.4854 51.8971C47.242 51.8718 47.6075 51.4095 47.5818 50.5103C47.5818 47.4581 47.6588 45.2608 47.8126 43.9184C47.7998 43.1585 47.3959 42.4809 46.6008 41.8857C46.5751 41.8603 46.5431 41.835 46.5046 41.8097C46.4661 41.7844 46.4341 41.7654 46.4084 41.7527C46.2161 41.778 46.1519 41.6957 46.2161 41.5057C46.2417 41.4551 46.2674 41.4044 46.293 41.3538C46.3187 41.3031 46.3571 41.2524 46.4084 41.2018C46.4341 41.0245 46.62 40.9358 46.9663 40.9358C47.1843 40.9232 47.7742 40.9295 48.736 40.9548C49.6978 40.9675 51.0315 40.9865 52.7371 41.0118C53.8399 41.0371 54.7761 41.0371 55.5455 41.0118C56.2252 40.9865 56.642 41.1385 56.7958 41.4677C56.8856 41.6577 56.9305 41.9553 56.9305 42.3606C56.9305 42.4746 56.9305 42.6076 56.9305 42.7595C56.9305 42.9115 56.9369 43.0888 56.9497 43.2915V43.7284C56.9497 44.4503 56.783 44.8429 56.4496 44.9062C56.3342 44.9062 56.2252 44.8809 56.1226 44.8302C55.8533 44.8429 55.7379 44.6909 55.7763 44.3743C55.8148 44.159 55.834 44.045 55.834 44.0323C55.6032 43.1711 55.1223 42.5949 54.3913 42.3036C54.3016 42.2783 54.2118 42.253 54.122 42.2276C54.0451 42.1896 53.9617 42.1643 53.872 42.1516C53.3975 41.9997 52.5639 41.9237 51.3713 41.9237H50.775C50.1466 41.8857 49.6914 41.9933 49.4092 42.2466C49.3579 42.2973 49.3131 42.3416 49.2746 42.3796C49.2361 42.4176 49.2041 42.4619 49.1784 42.5126C48.9219 43.4244 48.9283 44.4376 49.1976 45.5521C49.4926 46.0334 50.0633 46.2803 50.9096 46.293H51.1597C51.5188 46.483 51.8394 46.3057 52.1215 45.7611C52.1472 45.7231 52.1664 45.6851 52.1792 45.6471C52.2049 45.5964 52.2241 45.5458 52.2369 45.4951C52.2369 45.2925 52.3587 45.1975 52.6024 45.2102C52.8589 45.2988 53.0192 45.4698 53.0833 45.7231C53.2757 46.293 53.3718 47.1162 53.3718 48.1927C53.2949 48.2687 53.1923 48.4713 53.0641 48.8006C52.9871 48.9399 52.9102 49.0222 52.8332 49.0476C52.487 49.2122 52.2305 49.1172 52.0638 48.7626C52.0253 48.6613 52.0061 48.5726 52.0061 48.4967C51.865 47.8634 51.4931 47.5658 50.8904 47.6038C50.8391 47.6038 50.7622 47.6101 50.6596 47.6228C50.5698 47.6355 50.4608 47.6545 50.3326 47.6798C50.2043 47.6924 50.0953 47.7051 50.0056 47.7178C49.9158 47.7304 49.8388 47.7431 49.7747 47.7558C49.2361 47.7558 48.9668 48.0091 48.9668 48.5157V48.5536C48.8514 49.9468 48.845 50.8143 48.9476 51.1562C49.0886 51.5362 49.4285 51.7831 49.9671 51.8971C50.2749 51.9478 50.8648 52.0048 51.7368 52.0681C51.942 52.0681 52.5896 52.0491 53.6796 52.0111C54.7055 52.2137 55.4237 52.1251 55.834 51.7452C56.129 51.4539 56.3278 50.9789 56.4304 50.3204H56.6804C56.7702 50.3204 56.8407 50.3457 56.892 50.3964C56.9433 50.4344 56.969 50.4787 56.969 50.5293L56.9882 50.6053C57.1806 50.77 57.2767 51.1246 57.2767 51.6692C57.2767 52.3151 56.9946 52.7457 56.4304 52.961C56.2508 53.0243 56.0713 53.0623 55.8918 53.0749C55.6481 53.0749 54.8979 53.018 53.6411 52.904C53.4744 52.8913 53.327 52.885 53.1987 52.885C53.0705 52.8723 52.9551 52.866 52.8525 52.866C52.8012 52.866 52.705 52.866 52.5639 52.866C52.4229 52.866 52.2305 52.8596 51.9869 52.847C49.6016 52.7837 48.1397 52.828 47.6011 52.98Z" fill="white"/>
<path d="M71.5646 52.733C70.2437 53.5055 68.9421 53.5055 67.6597 52.733C66.031 51.8085 65.1013 50.637 64.8704 49.2185C64.832 48.9273 64.8127 48.6486 64.8127 48.3827C64.8127 46.5843 64.9602 45.2608 65.2552 44.4123C65.2808 44.3363 65.3 44.2856 65.3129 44.2603C66.0823 42.2213 67.3262 41.1258 69.0446 40.9738C69.6859 40.9105 70.3527 40.9865 71.0452 41.2018C72.8662 41.987 73.8985 43.2661 74.1422 45.0392C74.3089 45.3685 74.3922 45.8814 74.3922 46.578C74.3666 46.7046 74.3345 46.8692 74.2961 47.0719C74.2704 47.2745 74.2383 47.5088 74.1999 47.7748C74.046 48.9146 73.8536 49.7125 73.6228 50.1684C73.3663 51.1183 72.8341 51.8845 72.0262 52.467C71.9493 52.5177 71.8723 52.5684 71.7954 52.619C71.7184 52.657 71.6415 52.695 71.5646 52.733ZM69.2178 52.486C70.1796 52.676 70.9875 52.3784 71.6415 51.5932C71.8082 51.3905 71.9493 51.1752 72.0647 50.9473C73.3214 48.4143 73.3214 45.7611 72.0647 42.9875C71.898 42.4936 71.4748 42.12 70.7951 41.8667C70.4873 41.7654 70.218 41.7147 69.9872 41.7147C69.6538 41.8793 69.2242 41.9617 68.6984 41.9617C68.2239 41.9617 67.8392 42.2086 67.5442 42.7025C67.5314 42.7279 67.5122 42.7659 67.4865 42.8165C67.4609 42.8672 67.4288 42.9242 67.3904 42.9875C66.544 44.6719 66.1208 46.3816 66.1208 48.1167C66.1464 49.3325 66.3131 50.1874 66.6209 50.6813C67.2493 51.8591 68.1149 52.4607 69.2178 52.486Z" fill="white"/>
<path d="M75.8754 52.999C75.7087 53.0116 75.5804 52.9166 75.4906 52.714C75.3752 52.3847 75.5035 52.1314 75.8754 51.9541C76.555 51.7135 76.9077 51.1879 76.9333 50.3774V43.5194C77.1257 43.1395 77.0872 42.7405 76.8179 42.3226C76.6768 42.1326 76.5358 42.006 76.3947 41.9427C76.3306 41.8793 76.2473 41.8224 76.1447 41.7717C75.9395 41.6577 75.8625 41.5374 75.9138 41.4107C75.978 41.3094 76.0485 41.2208 76.1254 41.1448C76.1254 41.1448 76.1511 41.1321 76.2024 41.1068C76.2537 41.0688 76.3306 41.0181 76.4332 40.9548C76.5358 40.9168 76.6127 40.8978 76.664 40.8978H77.722C78.4786 40.8978 78.9916 41.1828 79.2609 41.7527C79.2737 41.778 79.2865 41.8097 79.2994 41.8477C79.3122 41.8857 79.325 41.9173 79.3378 41.9427C79.979 43.3611 81.0755 45.3368 82.6272 47.8698C82.7298 48.0217 82.8131 48.1547 82.8773 48.2687C82.9414 48.37 82.9927 48.4523 83.0311 48.5157C83.0311 48.7816 83.1594 49.0032 83.4159 49.1805C83.5441 49.2692 83.6852 49.3135 83.8391 49.3135C83.9801 48.2877 83.9801 46.559 83.8391 44.1273C83.8262 43.7601 83.8134 43.4371 83.8006 43.1585C83.7878 42.8672 83.7749 42.6139 83.7621 42.3986C83.7493 42.1833 83.5762 41.9173 83.2427 41.6007C83.2299 41.6007 83.2043 41.6007 83.1658 41.6007C83.1402 41.6007 83.1017 41.6071 83.0504 41.6197C82.6657 41.6957 82.4541 41.6197 82.4156 41.3917C82.4156 41.3411 82.4156 41.2904 82.4156 41.2398C82.4156 41.1891 82.422 41.1385 82.4348 41.0878C83.5377 40.9105 84.9612 40.9105 86.7052 41.0878C86.7052 41.4044 86.5898 41.6514 86.359 41.8287C86.064 42.044 85.8588 42.2783 85.7434 42.5316C85.5382 43.0508 85.4356 43.912 85.4356 45.1152C85.4228 45.3685 85.3843 45.8371 85.3202 46.521C85.2689 47.1922 85.1856 48.0724 85.0702 49.1616C85.0189 49.6808 84.9804 50.1494 84.9547 50.5673C84.9291 50.9853 84.9163 51.3589 84.9163 51.6882C85.0317 51.8021 85.0445 51.9921 84.9547 52.2581C84.9419 52.3087 84.9291 52.3531 84.9163 52.3911C84.9163 52.4164 84.9163 52.4417 84.9163 52.467C84.8393 52.619 84.7111 52.7393 84.5315 52.828C84.3648 52.904 84.2045 52.9356 84.0507 52.923C83.9096 52.9103 83.8391 52.8533 83.8391 52.752C83.8006 52.7013 83.7493 52.638 83.6852 52.562C83.6339 52.486 83.5633 52.3847 83.4736 52.2581C83.294 51.9921 83.1466 51.8021 83.0311 51.6882C82.9029 51.4349 82.7362 51.1119 82.531 50.7193C82.3387 50.314 82.1142 49.8454 81.8577 49.3135C81.2294 48.0344 80.6779 46.9326 80.2035 46.008C79.7418 45.0835 79.3571 44.3426 79.0493 43.7854C78.6004 43.7854 78.3504 43.9057 78.2991 44.1463C78.2863 44.197 78.2734 44.2603 78.2606 44.3363C78.2606 44.3996 78.2606 44.4819 78.2606 44.5833V49.0666C78.2606 50.0924 78.3183 50.7953 78.4337 51.1752C78.485 51.3146 78.5556 51.5172 78.6453 51.7831C78.7479 52.0364 78.8826 52.3594 79.0493 52.752C78.6902 52.8407 78.2414 52.904 77.7028 52.942C77.177 52.98 76.5679 52.999 75.8754 52.999Z" fill="white"/>
<path d="M89.3243 52.98C89.1961 53.1066 88.9011 53.1256 88.4395 53.037C88.3882 53.0243 88.3433 53.018 88.3048 53.018C88.2663 53.0053 88.2343 52.999 88.2086 52.999C88.0291 52.7963 87.9393 52.524 87.9393 52.1821C87.9393 52.0174 87.9778 51.9288 88.0547 51.9161C88.0804 51.9035 88.1317 51.8971 88.2086 51.8971C88.9652 51.8718 89.3307 51.4095 89.3051 50.5103C89.3051 47.4581 89.382 45.2608 89.5359 43.9184C89.5231 43.1585 89.1191 42.4809 88.3241 41.8857C88.2984 41.8603 88.2663 41.835 88.2279 41.8097C88.1894 41.7844 88.1573 41.7654 88.1317 41.7527C87.9393 41.778 87.8752 41.6957 87.9393 41.5057C87.965 41.4551 87.9906 41.4044 88.0163 41.3538C88.0419 41.3031 88.0804 41.2524 88.1317 41.2018C88.1573 41.0245 88.3433 40.9358 88.6895 40.9358C88.9075 40.9232 89.4974 40.9295 90.4592 40.9548C91.421 40.9675 92.7547 40.9865 94.4603 41.0118C95.5632 41.0371 96.4993 41.0371 97.2688 41.0118C97.9484 40.9865 98.3652 41.1385 98.5191 41.4677C98.6089 41.6577 98.6538 41.9553 98.6538 42.3606C98.6538 42.4746 98.6538 42.6076 98.6538 42.7595C98.6538 42.9115 98.6602 43.0888 98.673 43.2915V43.7284C98.673 44.4503 98.5063 44.8429 98.1729 44.9062C98.0574 44.9062 97.9484 44.8809 97.8458 44.8302C97.5765 44.8429 97.4611 44.6909 97.4996 44.3743C97.5381 44.159 97.5573 44.045 97.5573 44.0323C97.3265 43.1711 96.8456 42.5949 96.1146 42.3036C96.0248 42.2783 95.9351 42.253 95.8453 42.2276C95.7684 42.1896 95.685 42.1643 95.5952 42.1516C95.1208 41.9997 94.2872 41.9237 93.0946 41.9237H92.4982C91.8699 41.8857 91.4146 41.9933 91.1325 42.2466C91.0812 42.2973 91.0363 42.3416 90.9978 42.3796C90.9594 42.4176 90.9273 42.4619 90.9017 42.5126C90.6452 43.4244 90.6516 44.4376 90.9209 45.5521C91.2159 46.0334 91.7865 46.2803 92.6329 46.293H92.883C93.242 46.483 93.5626 46.3057 93.8448 45.7611C93.8704 45.7231 93.8897 45.6851 93.9025 45.6471C93.9281 45.5964 93.9474 45.5458 93.9602 45.4951C93.9602 45.2925 94.082 45.1975 94.3257 45.2102C94.5821 45.2988 94.7424 45.4698 94.8066 45.7231C94.9989 46.293 95.0951 47.1162 95.0951 48.1927C95.0182 48.2687 94.9156 48.4713 94.7873 48.8006C94.7104 48.9399 94.6334 49.0222 94.5565 49.0476C94.2103 49.2122 93.9538 49.1172 93.7871 48.7626C93.7486 48.6613 93.7294 48.5726 93.7294 48.4967C93.5883 47.8634 93.2164 47.5658 92.6137 47.6038C92.5624 47.6038 92.4854 47.6101 92.3828 47.6228C92.2931 47.6355 92.1841 47.6545 92.0558 47.6798C91.9276 47.6924 91.8186 47.7051 91.7288 47.7178C91.639 47.7304 91.5621 47.7431 91.498 47.7558C90.9594 47.7558 90.6901 48.0091 90.6901 48.5157V48.5536C90.5747 49.9468 90.5682 50.8143 90.6708 51.1562C90.8119 51.5362 91.1517 51.7831 91.6903 51.8971C91.9981 51.9478 92.588 52.0048 93.46 52.0681C93.6652 52.0681 94.3128 52.0491 95.4029 52.0111C96.4288 52.2137 97.1469 52.1251 97.5573 51.7452C97.8523 51.4539 98.051 50.9789 98.1536 50.3204H98.4037C98.4935 50.3204 98.564 50.3457 98.6153 50.3964C98.6666 50.4344 98.6922 50.4787 98.6922 50.5293L98.7115 50.6053C98.9038 50.77 99 51.1246 99 51.6692C99 52.3151 98.7179 52.7457 98.1536 52.961C97.9741 53.0243 97.7945 53.0623 97.615 53.0749C97.3714 53.0749 96.6212 53.018 95.3644 52.904C95.1977 52.8913 95.0502 52.885 94.922 52.885C94.7937 52.8723 94.6783 52.866 94.5757 52.866C94.5244 52.866 94.4283 52.866 94.2872 52.866C94.1461 52.866 93.9538 52.8596 93.7101 52.847C91.3249 52.7837 89.8629 52.828 89.3243 52.98Z" fill="white"/>
</svg>
